<?xml version="1.0" encoding="UTF-8"?>
<svg xmlns="http://www.w3.org/2000/svg"
     xmlns:inkscape="http://www.inkscape.org/namespaces/inkscape"
     width="297mm" height="210mm" viewBox="0 0 297 210">
  <!-- Hilfslinie: A4-Blattrand (nicht schneiden) -->
  <g inkscape:groupmode="layer" inkscape:label="Hilfslinien">
    <rect x="0" y="0" width="297" height="210" fill="none"
          stroke="#cccccc" stroke-width="0.2" stroke-dasharray="2,2"/>
  </g>
  <!-- SCHNEIDEN: rot, Haarlinie -->
  <g inkscape:groupmode="layer" inkscape:label="Schnitt"
     fill="none" stroke="#ff0000" stroke-width="0.1">
    <rect x="104.3" y="72.8" width="88.4" height="64.4" rx="1" ry="1"/>
    <rect x="17.8" y="21.8" width="67.4" height="65.9" rx="1" ry="1"/>
    <rect x="21.8" y="119.8" width="50.4" height="25.4" rx="1" ry="1"/>
    <rect x="29.8" y="164.8" width="21.9" height="18.9" rx="1" ry="1"/>
    <rect x="204.8" y="21.8" width="80.4" height="40.4" rx="1" ry="1"/>
    <rect x="209.8" y="94.8" width="42.4" height="23.9" rx="1" ry="1"/>
    <rect x="209.8" y="149.8" width="40.4" height="20.4" rx="1" ry="1"/>
    <rect x="142.3" y="159.8" width="12.4" height="23.4" rx="1" ry="1"/>
  </g>
  <!-- GRAVIEREN: schwarz (Nennmass-Umriss + Beschriftung) -->
  <g inkscape:groupmode="layer" inkscape:label="Gravur">
    <g fill="none" stroke="#000000" stroke-width="0.2">
    <rect x="104.5" y="73" width="88" height="64"/>
    <rect x="18" y="22" width="67" height="65.5"/>
    <rect x="22" y="120" width="50" height="25"/>
    <rect x="30" y="165" width="21.5" height="18.5"/>
    <rect x="205" y="22" width="80" height="40"/>
    <rect x="210" y="95" width="42" height="23.5"/>
    <rect x="210" y="150" width="40" height="20"/>
    <rect x="142.5" y="160" width="12" height="23"/>
    </g>
    <g fill="#000000" stroke="none"
       font-family="sans-serif" font-size="5" text-anchor="middle">
    <text x="148.5" y="68">Maker-Pi RP2040</text>
    <text x="51.5" y="17">8x8 Matrix</text>
    <text x="47" y="115">Ultraschall</text>
    <text x="40.75" y="160">Drehgeber</text>
    <text x="245" y="17">LCD</text>
    <text x="231" y="90">7-Segment</text>
    <text x="230" y="145">DHT11</text>
    <text x="148.5" y="155">Servo</text>
    </g>
  </g>
</svg>
